<?xml version="1.0" encoding="utf-8"?>
<!-- Generated by IcoMoon.io -->
<!DOCTYPE svg PUBLIC "-//W3C//DTD SVG 1.1//EN" "http://www.w3.org/Graphics/SVG/1.1/DTD/svg11.dtd">

<svg version="1.1" xmlns="http://www.w3.org/2000/svg" xmlns:xlink="http://www.w3.org/1999/xlink" width="176" height="32" viewBox="0 0 176 32">
<defs>
<g id="icon-tie">
	<path class="path1" d="M16.902 8.968l1.248-5.924h-6.349l1.297 5.924h3.804zM13.071 10.077l-4.2 13.383 6.35 5.275 5.861-5.275-4.104-13.383h-3.907zM18.834 11.934l2.932 8.060h1.758v-1.808l-4.69-6.252z"></path>
</g>
<g id="icon-lamp">
	<path class="path1" d="M17.57 18.118c-1.598-1.306-2.618-3.292-2.618-5.517 0-1.118 0.28-2.162 0.739-3.104l-1.098-1.097-6.67 6.671c1.24 0.976 1.115 1.93-0.336 2.86l8.911 8.91h4.367c0.562 0 1.018 0.456 1.018 1.018v1.018h-4.768l-0.011 0.011-0.011-0.011h-7.418v-1.017c0-0.562 0.456-1.018 1.018-1.018h4.367l-8.406-8.405c-1.661 0.712-2.481 0.024-2.446-2.090 0.038-2.249 0.991-2.849 2.839-1.837l6.829-6.829-0.676-0.675c-0.397-0.396-0.397-1.041 0-1.438l2.158-2.158c0.397-0.397 1.042-0.397 1.439 0l2.6 2.602c0.828-0.337 1.729-0.53 2.678-0.53 2.342 0 4.422 1.005 5.719 2.752 0.044 0.011-10.187 9.9-10.224 9.884zM25.443 11.754c0 0 1.717 2.161 0 3.878s-3.857-0.021-3.857-0.021l3.857-3.857z"></path>
</g>
<g id="icon-lightning">
	<path class="path1" d="M17.927 12l2.68-10.28c0.040-0.126 0.060-0.261 0.060-0.4 0-0.726-0.587-1.32-1.314-1.32-0.413 0-0.78 0.187-1.019 0.487l-13.38 17.353c-0.18 0.227-0.287 0.513-0.287 0.827 0 0.733 0.6 1.333 1.333 1.333h8.073l-2.68 10.28c-0.041 0.127-0.060 0.261-0.060 0.4 0.001 0.727 0.587 1.32 1.314 1.32 0.413 0 0.78-0.186 1.020-0.487l13.379-17.353c0.181-0.227 0.287-0.513 0.287-0.827 0-0.733-0.6-1.333-1.333-1.333h-8.073z"></path>
</g>
<g id="icon-stats">
	<path class="path1" d="M4 28h28v4h-32v-32h4zM9 26c-1.657 0-3-1.343-3-3s1.343-3 3-3c0.088 0 0.176 0.005 0.262 0.012l3.225-5.375c-0.307-0.471-0.487-1.033-0.487-1.638 0-1.657 1.343-3 3-3s3 1.343 3 3c0 0.604-0.179 1.167-0.487 1.638l3.225 5.375c0.086-0.007 0.174-0.012 0.262-0.012 0.067 0 0.133 0.003 0.198 0.007l5.324-9.316c-0.329-0.482-0.522-1.064-0.522-1.691 0-1.657 1.343-3 3-3s3 1.343 3 3c0 1.657-1.343 3-3 3-0.067 0-0.133-0.003-0.198-0.007l-5.324 9.316c0.329 0.481 0.522 1.064 0.522 1.691 0 1.657-1.343 3-3 3s-3-1.343-3-3c0-0.604 0.179-1.167 0.487-1.638l-3.225-5.375c-0.086 0.007-0.174 0.012-0.262 0.012s-0.176-0.005-0.262-0.012l-3.225 5.375c0.307 0.471 0.487 1.033 0.487 1.637 0 1.657-1.343 3-3 3z"></path>
</g>
</defs>

<g fill="#000000">
	<use xlink:href="#icon-tie" transform="translate(0 0)"></use>
	<use xlink:href="#icon-lamp" transform="translate(48 0)"></use>
	<use xlink:href="#icon-lightning" transform="translate(96 0)"></use>
	<use xlink:href="#icon-stats" transform="translate(144 0)"></use>
</g>

</svg>
